<svg width="24" height="24" viewBox="0 0 24 24" fill="none" xmlns="http://www.w3.org/2000/svg">
<path d="M16.0606 7.93934C16.6464 8.52513 16.6464 9.47487 16.0606 10.0607L14.1213 12L16.0606 13.9393C16.6464 14.5251 16.6464 15.4749 16.0606 16.0606C15.4749 16.6464 14.5251 16.6464 13.9393 16.0606L12 14.1213L10.0607 16.0606C9.47487 16.6464 8.52513 16.6464 7.93934 16.0606C7.35356 15.4749 7.35356 14.5251 7.93934 13.9393L9.87868 12L7.93934 10.0607C7.35356 9.47487 7.35356 8.52513 7.93934 7.93934C8.52513 7.35356 9.47487 7.35356 10.0607 7.93934L12 9.87868L13.9393 7.93934C14.5251 7.35356 15.4749 7.35356 16.0606 7.93934Z" fill="#182923"/>
<path d="M0 12C0 5.37258 5.37258 0 12 0C18.6275 0 24 5.37258 24 12C24 18.6275 18.6275 24 12 24C5.37258 24 0 18.6275 0 12ZM12 3C7.02944 3 3 7.02944 3 12C3 16.9706 7.02944 21 12 21C16.9706 21 21 16.9706 21 12C21 7.02944 16.9706 3 12 3Z" fill="#182923"/>
</svg>
