<svg width="25" height="25" viewBox="0 0 25 25" fill="none" xmlns="http://www.w3.org/2000/svg">
<path d="M0.731063 0C8.56408 0 16.3957 0 24.2273 0C24.7511 0.0653521 24.9867 0.456044 24.9867 0.927715C24.9811 8.63216 24.9796 16.338 24.9882 24.0425C24.9882 24.6065 24.5907 25.0014 24.0385 25C19.327 24.9901 14.6156 24.9929 9.90271 24.9986C9.69404 24.9986 9.6259 24.9176 9.6259 24.7301C9.6259 24.6491 9.62448 24.5681 9.62448 24.4857C9.62448 21.5349 9.62448 18.5856 9.62448 15.6348C9.62448 15.5936 9.62448 15.5538 9.62448 15.5126C9.63016 14.8704 9.88426 14.6133 10.5287 14.6048C10.9517 14.5991 11.3734 14.6062 11.7964 14.6019C12.2464 14.5977 12.4536 14.4442 12.5147 14.0081C12.6155 13.292 12.6921 12.5732 12.739 11.8515C12.7688 11.3954 12.6112 11.2477 12.1569 11.2448C11.6445 11.2406 11.1335 11.2448 10.621 11.2434C10.4989 11.2434 10.3768 11.2434 10.2562 11.2207C9.87006 11.1496 9.65003 10.9394 9.63584 10.5501C9.61454 9.96619 9.58331 9.38087 9.67132 8.79838C9.75366 8.24715 10.0276 7.99426 10.5841 7.92323C11.0213 7.86782 11.4585 7.87351 11.8972 7.87208C12.0022 7.87208 12.1087 7.87493 12.2137 7.87066C12.5913 7.85504 12.7815 7.67177 12.7872 7.29102C12.7957 6.55936 12.7957 5.8277 12.7872 5.09604C12.783 4.72382 12.597 4.5164 12.2407 4.51924C11.1689 4.52776 10.0958 4.4482 9.02685 4.56754C7.91393 4.69114 6.92452 5.06337 6.26585 6.04507C5.8556 6.65455 5.68384 7.34359 5.58305 8.0582C5.50923 8.58385 5.54046 9.11235 5.53337 9.64085C5.52911 9.92499 5.54756 10.2106 5.52485 10.4933C5.48794 10.9578 5.24236 11.2008 4.77817 11.2363C4.52691 11.2562 4.27423 11.2377 4.02298 11.2448C3.63118 11.2576 3.42535 11.4252 3.40548 11.8188C3.36857 12.5575 3.36573 13.2977 3.4069 14.0365C3.42819 14.43 3.63686 14.5948 4.02724 14.6019C4.27849 14.6062 4.53117 14.5877 4.78243 14.6147C5.27785 14.6673 5.50072 14.9074 5.53053 15.4075C5.53621 15.4899 5.53621 15.5708 5.53621 15.6532C5.53621 18.604 5.53621 21.5534 5.53621 24.5042C5.53621 24.9958 5.53479 24.9958 5.04646 24.9958C3.67377 24.9958 2.30107 24.9943 0.928379 24.9972C0.650149 24.9972 0.403149 24.9418 0.204414 24.723C0.0752356 24.5809 0.034069 24.4161 0.00141954 24.2414C0 16.4034 0 8.56823 0 0.731659C0.0837528 0.294084 0.293845 0.0838211 0.731063 0Z" fill="#EDE3C7"/>
</svg>
