<svg width="26" height="25" viewBox="0 0 26 25" fill="none" xmlns="http://www.w3.org/2000/svg">
<path d="M13.1124 7.02247C10.1327 7.01679 7.72803 9.40782 7.70958 12.3927C7.69112 15.3861 10.0902 17.8084 13.084 17.824C16.0707 17.8397 18.4938 15.4287 18.5024 12.4367C18.5109 9.44192 16.1076 7.02815 13.1124 7.02247ZM13.0982 15.1318C11.6204 15.1247 10.4081 13.9086 10.4025 12.4296C10.3968 10.9422 11.6275 9.70901 13.1152 9.71469C14.5915 9.72037 15.8052 10.9365 15.8123 12.4154C15.818 13.9001 14.5802 15.1389 13.0982 15.1318Z" fill="#EDE3C7"/>
<path d="M17.8409 6.36337C17.831 5.59762 18.4244 4.99382 19.1867 4.99524C19.9362 4.99524 20.5253 5.58483 20.5281 6.33496C20.531 7.08935 19.949 7.68036 19.1994 7.68746C18.4471 7.69314 17.8509 7.11208 17.8409 6.36337Z" fill="#EDE3C7"/>
<path d="M25.2948 6.74835C25.2962 5.56491 24.9938 4.46813 24.3607 3.4779C23.0136 1.37101 21.1213 0.218825 18.5761 0.224508C14.8413 0.233032 11.1079 0.22735 7.37312 0.225929C7.09915 0.225929 6.82376 0.237294 6.55404 0.279915C4.59366 0.603834 3.0705 1.61963 1.97745 3.26764C1.37983 4.16694 0.973839 5.1458 0.982356 6.25536C0.982356 6.25963 0.982357 6.26531 0.980937 6.26957C0.980937 6.2781 0.979518 6.28662 0.979518 6.29514C0.97384 6.43721 1.01217 6.58213 0.949707 6.71993V18.1239C1.01784 18.2617 0.96816 18.408 0.982356 18.5487C0.982356 18.5515 0.982356 18.5558 0.982356 18.5586V18.5742C0.980936 18.9393 1.00791 19.3002 1.11153 19.6525C1.5303 21.0917 2.30111 22.3021 3.49494 23.2156C4.51417 23.9942 5.63418 24.5454 6.95719 24.5539H6.96571C6.97139 24.5539 6.97849 24.5554 6.98416 24.5554C7.10483 24.5653 7.22832 24.5198 7.34331 24.5852H18.8657C18.9807 24.5269 19.1042 24.5568 19.2234 24.5554C19.2319 24.5554 19.2419 24.5554 19.2504 24.5539C19.2589 24.5539 19.2674 24.5539 19.2759 24.5525C19.6237 24.5525 19.9715 24.5255 20.3079 24.436C23.1939 23.6688 25.3587 20.9042 25.3047 17.8923C25.2437 14.1814 25.2877 10.4649 25.2948 6.74835ZM18.4214 21.8773C14.8768 21.8802 11.3322 21.883 7.78762 21.8773C5.68103 21.8745 4.07127 20.5263 3.70503 18.4663C3.66386 18.2389 3.6596 18.0031 3.6596 17.7715C3.65677 14.2027 3.65251 10.6354 3.6596 7.06658C3.66386 4.981 5.0181 3.37561 7.0665 3.01334C7.32485 2.96787 7.59173 2.96787 7.85434 2.96787C9.61599 2.96361 11.3776 2.96645 13.1393 2.96645C14.9109 2.96645 16.6839 2.96077 18.4555 2.96787C20.5393 2.9764 22.142 4.32606 22.5068 6.37754C22.5494 6.6148 22.5537 6.86058 22.5537 7.10352C22.5565 10.651 22.5593 14.1971 22.5537 17.7445C22.5494 19.8585 21.2065 21.4639 19.1453 21.8305C18.9083 21.8745 18.6627 21.8773 18.4214 21.8773Z" fill="#EDE3C7"/>
<path d="M0.951172 6.72118V6.27792C0.96111 6.27508 0.972469 6.27224 0.982407 6.27082C0.990926 6.2694 0.998024 6.26798 1.00654 6.26514C1.025 6.42141 1.05623 6.57911 0.951172 6.72118Z" fill="#EDE3C7"/>
<path d="M1.00654 18.5812C0.999442 18.5798 0.990925 18.5784 0.983826 18.5769C0.972469 18.5755 0.96111 18.5727 0.951172 18.5698V18.1266C1.05481 18.2672 1.025 18.4249 1.00654 18.5812Z" fill="#EDE3C7"/>
<path d="M7.34492 24.588H6.96448C6.96306 24.5767 6.96022 24.5667 6.9588 24.5553C6.95738 24.5482 6.95596 24.5411 6.95312 24.534C7.0894 24.5141 7.22568 24.4871 7.34492 24.588Z" fill="#EDE3C7"/>
<path d="M19.259 24.534C19.2562 24.5411 19.2548 24.5497 19.2533 24.5582C19.2505 24.5681 19.2491 24.5781 19.2477 24.588H18.8672C18.9864 24.4871 19.1241 24.5141 19.259 24.534Z" fill="#EDE3C7"/>
<path d="M13.1124 7.02247C10.1327 7.01679 7.72803 9.40782 7.70958 12.3927C7.69112 15.3861 10.0902 17.8084 13.084 17.824C16.0707 17.8397 18.4938 15.4287 18.5024 12.4367C18.5109 9.44192 16.1076 7.02815 13.1124 7.02247ZM13.0982 15.1318C11.6204 15.1247 10.4081 13.9086 10.4025 12.4296C10.3968 10.9422 11.6275 9.70901 13.1152 9.71469C14.5915 9.72037 15.8052 10.9365 15.8123 12.4154C15.818 13.9001 14.5802 15.1389 13.0982 15.1318Z" fill="#EDE3C7"/>
<path d="M20.5282 6.33501C20.531 7.0894 19.949 7.68041 19.1995 7.68751C18.4471 7.69319 17.8509 7.11355 17.8424 6.36484C17.8325 5.59908 18.4258 4.99529 19.1881 4.99671C19.9362 4.99671 20.5253 5.58488 20.5282 6.33501Z" fill="#EDE3C7"/>
<path d="M13.1124 7.02247C10.1327 7.01679 7.72803 9.40782 7.70958 12.3927C7.69112 15.3861 10.0902 17.8084 13.084 17.824C16.0707 17.8397 18.4938 15.4287 18.5024 12.4367C18.5109 9.44192 16.1076 7.02815 13.1124 7.02247ZM13.0982 15.1318C11.6204 15.1247 10.4081 13.9086 10.4025 12.4296C10.3968 10.9422 11.6275 9.70901 13.1152 9.71469C14.5915 9.72037 15.8052 10.9365 15.8123 12.4154C15.818 13.9001 14.5802 15.1389 13.0982 15.1318Z" fill="#EDE3C7"/>
<path d="M20.5282 6.33501C20.531 7.0894 19.949 7.68041 19.1995 7.68751C18.4471 7.69319 17.8509 7.11355 17.8424 6.36484C17.8325 5.59908 18.4258 4.99529 19.1881 4.99671C19.9362 4.99671 20.5253 5.58488 20.5282 6.33501Z" fill="#EDE3C7"/>
</svg>
