<svg width="28" height="27" viewBox="0 0 28 27" fill="none" xmlns="http://www.w3.org/2000/svg">
<path d="M27.2506 13.5C27.2506 20.5386 21.5191 26.25 14.4421 26.25C7.36515 26.25 1.63367 20.5386 1.63367 13.5C1.63367 6.46142 7.36515 0.75 14.4421 0.75C21.5191 0.75 27.2506 6.46142 27.2506 13.5Z" fill="#0D1D17" stroke="#5F685A" stroke-width="1.5"/>
<path d="M12.8386 16.256C12.8026 15.788 12.7846 15.512 12.7846 15.428C12.7846 14.9 12.9406 14.426 13.2526 14.006C13.5766 13.574 14.0446 13.082 14.6566 12.53C15.1966 12.026 15.5926 11.612 15.8446 11.288C16.1086 10.952 16.2406 10.598 16.2406 10.226C16.2406 9.65 16.0426 9.188 15.6466 8.84C15.2506 8.48 14.7286 8.3 14.0806 8.3C13.5646 8.3 13.0426 8.456 12.5146 8.768C11.9986 9.068 11.5366 9.44 11.1286 9.884L10.0306 8.786C10.5466 8.198 11.1586 7.718 11.8666 7.346C12.5866 6.974 13.3366 6.788 14.1166 6.788C14.8366 6.788 15.4846 6.944 16.0606 7.256C16.6366 7.556 17.0866 7.97 17.4106 8.498C17.7346 9.014 17.8966 9.59 17.8966 10.226C17.8966 10.694 17.8006 11.12 17.6086 11.504C17.4286 11.888 17.2066 12.218 16.9426 12.494C16.6906 12.758 16.3486 13.076 15.9166 13.448C15.4006 13.88 15.0166 14.258 14.7646 14.582C14.5126 14.894 14.3866 15.248 14.3866 15.644V16.256H12.8386ZM13.6306 20.18C13.2946 20.18 13.0066 20.06 12.7666 19.82C12.5386 19.58 12.4246 19.286 12.4246 18.938C12.4246 18.602 12.5386 18.32 12.7666 18.092C13.0066 17.852 13.2946 17.732 13.6306 17.732C13.9786 17.732 14.2726 17.852 14.5126 18.092C14.7526 18.32 14.8726 18.602 14.8726 18.938C14.8726 19.286 14.7526 19.58 14.5126 19.82C14.2726 20.06 13.9786 20.18 13.6306 20.18Z" fill="#F5EDD0" fill-opacity="0.32"/>
</svg>
