<svg width="93" height="131" viewBox="0 0 93 131" fill="none" xmlns="http://www.w3.org/2000/svg">
<g clip-path="url(#clip0)">
<path d="M30.7422 37.8076H50.123" stroke="#F5EDD0" stroke-width="7" stroke-miterlimit="10" stroke-linecap="round" stroke-linejoin="round"/>
<path d="M30.7422 46.3986H40.4326" stroke="#F5EDD0" stroke-width="7" stroke-miterlimit="10" stroke-linecap="round" stroke-linejoin="round"/>
<path d="M30.7422 63.5719H34.7081" stroke="#F5EDD0" stroke-width="7" stroke-miterlimit="10" stroke-linecap="round" stroke-linejoin="round"/>
<path d="M30.7422 54.9896H46.3594" stroke="#EC5700" stroke-width="7" stroke-miterlimit="10" stroke-linecap="round"/>
<path d="M51.6355 21.8026H29.2385C24.7538 21.8026 21.1221 25.4305 21.1221 29.9017V83.3804L24.6746 79.5153L28.4998 84.0041L31.5687 80.2796L35.5962 84.0041L37.9616 79.8052L40.4414 82.9588L43.1146 79.6208L45.0843 82.9236L48.1797 80.385L51.8114 84.0129L54.4846 80.4816L59.7519 83.3892V29.9017C59.7431 25.4305 56.1114 21.8026 51.6355 21.8026Z" stroke="#F5EDD0" stroke-width="7" stroke-miterlimit="10" stroke-linecap="round"/>
<path d="M89.9223 104.454H63.2956H8.49455C5.50476 104.454 3.07776 102.029 3.07776 99.0427V8.48558C3.07776 5.49892 5.50476 3.07446 8.49455 3.07446H89.9223" stroke="#F5EDD0" stroke-width="7" stroke-miterlimit="10" stroke-linecap="round"/>
<path d="M89.9223 127.925H65.7139C63.0142 127.925 60.9214 125.589 61.2204 122.91L63.2956 104.454H89.9223" stroke="#F5EDD0" stroke-width="7" stroke-miterlimit="10" stroke-linecap="round"/>
<path d="M89.9224 40.5131H81.1289" stroke="#F5EDD0" stroke-width="7" stroke-miterlimit="10" stroke-linecap="round"/>
<path d="M89.9224 53.7598H81.1289" stroke="#F5EDD0" stroke-width="7" stroke-miterlimit="10" stroke-linecap="round"/>
<path d="M89.9224 67.0153H81.1289" stroke="#F5EDD0" stroke-width="7" stroke-miterlimit="10" stroke-linecap="round"/>
</g>
<defs>
<clipPath id="clip0">
<rect width="93" height="131" fill="white"/>
</clipPath>
</defs>
</svg>
