<svg width="27" height="19" viewBox="0 0 27 19" fill="none" xmlns="http://www.w3.org/2000/svg">
<path d="M26.9687 5.10074C26.9588 4.4529 26.8538 3.81927 26.6962 3.19416C26.479 2.33038 25.9978 1.64986 25.2582 1.14836C24.6833 0.757666 24.0303 0.619858 23.3617 0.531775C22.7456 0.450795 22.1253 0.406754 21.5064 0.355609C20.7938 0.29736 20.0797 0.270367 19.3657 0.239111C18.6957 0.209277 18.0228 0.217801 17.3514 0.202173C16.7566 0.187966 16.1618 0.193649 15.567 0.189387C14.3221 0.182284 13.0771 0.168077 11.8322 0.199332C11.1877 0.21496 10.5433 0.202173 9.8988 0.213539C9.33808 0.223484 8.77594 0.226325 8.21381 0.241953C7.95119 0.249056 7.68574 0.250477 7.42171 0.270367C6.80847 0.31725 6.19238 0.339981 5.57914 0.393967C4.98152 0.446533 4.38247 0.486313 3.79478 0.60281C2.3213 0.892632 1.37873 1.77346 0.999718 3.21973C0.722908 4.27673 0.646251 5.36783 0.585211 6.45466C0.536947 7.31702 0.535527 8.18223 0.531268 9.04601C0.528429 9.59582 0.528431 10.147 0.542627 10.6983C0.565339 11.5621 0.562501 12.4258 0.636317 13.2882C0.708713 14.1165 0.802402 14.9405 0.981263 15.7531C1.12606 16.4109 1.43835 16.982 1.91532 17.4523C2.42351 17.9524 3.03534 18.2592 3.73801 18.3914C4.63799 18.5604 5.54791 18.6187 6.45784 18.6854C7.06682 18.7295 7.6758 18.7622 8.2862 18.7678C9.19471 18.7764 10.1032 18.8048 11.0117 18.8034C11.016 18.8034 11.0217 18.8034 11.0259 18.8048C11.0316 18.8048 11.0373 18.8048 11.0415 18.8048C11.1253 18.8062 11.209 18.7906 11.2899 18.8204H11.3893C11.4489 18.7891 11.5114 18.8062 11.5724 18.8062C11.5767 18.8062 11.5824 18.8062 11.5866 18.8062C11.5909 18.8062 11.5937 18.8062 11.5966 18.8048H11.8365C11.8407 18.8048 11.845 18.8062 11.8507 18.8062C11.8563 18.8062 11.8606 18.8062 11.8663 18.8062C11.916 18.8062 11.9685 18.792 12.0153 18.8204H12.1147C12.1814 18.7948 12.2467 18.7948 12.3134 18.8204H12.4128C12.4994 18.7877 12.5888 18.8105 12.6768 18.8048C12.6811 18.8048 12.6854 18.8048 12.6882 18.8048H13.1992C13.2006 18.8048 13.2035 18.8048 13.2049 18.8048C13.3043 18.8119 13.4051 18.7863 13.503 18.8204H14.1972C14.2951 18.7863 14.3959 18.8105 14.4953 18.8048C14.4981 18.8048 14.5009 18.8048 14.5038 18.8048H15.2547H16.7097C17.0334 18.8005 17.3585 18.7977 17.6835 18.792C18.3607 18.7806 19.0364 18.7721 19.7135 18.7579C20.3622 18.7451 21.0095 18.7039 21.6554 18.6613C22.4021 18.6116 23.1459 18.5533 23.8827 18.4226C25.0226 18.2194 25.8828 17.6199 26.4165 16.5856C26.7544 15.9321 26.8268 15.2104 26.9247 14.4958C26.9645 14.1975 26.9389 13.8934 26.9929 13.5951V5.3934C26.9702 5.29821 26.9702 5.19734 26.9687 5.10074ZM11.2076 13.4914V5.52979C13.5115 6.85672 15.8055 8.17654 18.1222 9.51058C15.8069 10.8432 13.5158 12.163 11.2076 13.4914Z" fill="#EDE3C7"/>
<path d="M26.9997 5.3934C26.9188 5.1874 26.933 4.96719 26.9032 4.75409C26.8266 4.19717 26.7627 3.63742 26.598 3.10039C26.192 1.77488 25.2963 0.975032 23.9421 0.700838C23.0492 0.518989 22.1407 0.462161 21.235 0.406754C18.7039 0.253318 16.1701 0.202173 13.6348 0.203594C11.5963 0.205015 9.55783 0.246215 7.52078 0.341402C6.36528 0.395388 5.21261 0.48063 4.06278 0.622699C2.47573 0.818756 1.25635 1.94253 0.97244 3.63884C0.736796 5.05527 0.641685 6.48165 0.580645 7.91371C0.515346 9.46369 0.553675 11.0108 0.653043 12.5566C0.7226 13.6505 0.797836 14.7473 1.07891 15.8114C1.44515 17.2022 2.36075 18.0348 3.76326 18.3203C4.69306 18.5093 5.64132 18.559 6.58673 18.6201C8.0659 18.7167 9.5479 18.7522 11.0299 18.792C11.0398 18.7963 11.0455 18.8005 11.0469 18.8048C11.0469 18.809 11.0427 18.8147 11.0313 18.8204C11.0313 18.8147 11.0313 18.8105 11.0313 18.8048C11.0271 18.8048 11.0214 18.8048 11.0171 18.8034C10.1086 18.8048 9.20011 18.7764 8.2916 18.7678C7.6812 18.7622 7.0708 18.7309 6.46323 18.6854C5.55331 18.6187 4.64195 18.559 3.74338 18.3914C3.04071 18.2592 2.42747 17.9524 1.92069 17.4523C1.44231 16.982 1.13001 16.4095 0.986636 15.7531C0.807774 14.9405 0.714085 14.1165 0.641688 13.2882C0.566453 12.4258 0.569291 11.5621 0.547998 10.6983C0.533803 10.147 0.5338 9.59724 0.536639 9.04601C0.540898 8.18223 0.542318 7.31702 0.590583 6.45466C0.651623 5.36783 0.72828 4.27673 1.00509 3.21973C1.38411 1.77346 2.32668 0.891211 3.80017 0.60281C4.38928 0.487733 4.98833 0.446533 5.58454 0.393967C6.19778 0.339981 6.81386 0.31867 7.4271 0.270367C7.68971 0.250477 7.95517 0.249056 8.21921 0.241953C8.77993 0.227746 9.34206 0.223484 9.9042 0.213539C10.5487 0.202173 11.1931 0.21496 11.8376 0.199332C13.0826 0.168077 14.3275 0.182284 15.5724 0.189387C16.1672 0.193649 16.762 0.187966 17.3568 0.202173C18.0282 0.219222 18.7011 0.210697 19.3711 0.239111C20.0852 0.270367 20.7992 0.29736 21.5118 0.355609C22.1307 0.405333 22.7511 0.450795 23.3671 0.531775C24.0372 0.619858 24.6887 0.757666 25.2637 1.14836C26.0032 1.64986 26.4844 2.33038 26.7016 3.19416C26.8592 3.81927 26.9643 4.4529 26.9742 5.10074C26.9699 5.19734 26.9699 5.29821 26.9997 5.3934Z" fill="#EDE3C7"/>
<path d="M27.0002 13.5951C26.9462 13.8934 26.9732 14.1975 26.932 14.4958C26.8355 15.209 26.7617 15.9321 26.4238 16.5857C25.8887 17.6199 25.0284 18.2209 23.8899 18.4226C23.1532 18.5533 22.4079 18.6116 21.6627 18.6613C21.0154 18.7039 20.3695 18.7451 19.7208 18.7579C19.0436 18.7721 18.3679 18.7806 17.6908 18.792C17.3657 18.7977 17.0421 18.8005 16.717 18.8048C16.717 18.8105 16.717 18.8162 16.717 18.8218C16.7042 18.8162 16.6986 18.8105 16.7014 18.8048C16.7028 18.8005 16.7085 18.7977 16.717 18.7934C17.8129 18.7579 18.9088 18.7338 20.0032 18.6854C21.2794 18.63 22.557 18.5761 23.819 18.3615C25.3918 18.0944 26.4096 17.0772 26.7049 15.5059C26.817 14.9107 26.8951 14.3111 26.9618 13.7087C26.9647 13.6704 26.9405 13.6164 27.0002 13.5951Z" fill="#EDE3C7"/>
<path d="M13.2107 18.7877C13.3101 18.7991 13.4151 18.7565 13.5088 18.8204C13.4094 18.8204 13.3101 18.8204 13.2107 18.8204C13.1908 18.8104 13.1908 18.7991 13.2107 18.7877Z" fill="#EDE3C7"/>
<path d="M14.2026 18.8204C14.2963 18.7565 14.4014 18.8005 14.5008 18.7877C14.5221 18.7991 14.5206 18.809 14.5008 18.8204C14.4014 18.8204 14.302 18.8204 14.2026 18.8204Z" fill="#EDE3C7"/>
<path d="M14.7662 18.7905C14.8656 18.7905 14.9649 18.7905 15.0643 18.7919C15.0771 18.7991 15.0814 18.8062 15.0757 18.8118C15.0714 18.8175 15.0672 18.8204 15.0629 18.8204C14.9635 18.8204 14.8642 18.8204 14.7648 18.8204C14.7435 18.809 14.7449 18.7991 14.7662 18.7905Z" fill="#EDE3C7"/>
<path d="M15.4279 18.7919C15.5272 18.7919 15.6252 18.7919 15.7246 18.7905C15.7374 18.7976 15.7416 18.8033 15.7374 18.8104C15.7331 18.8161 15.7288 18.8189 15.7246 18.8189C15.6252 18.8189 15.5258 18.8189 15.4264 18.8189C15.4051 18.809 15.4051 18.8005 15.4279 18.7919Z" fill="#EDE3C7"/>
<path d="M15.8908 18.7933C15.9901 18.7933 16.0895 18.7933 16.1888 18.7933C16.2016 18.8004 16.2059 18.8061 16.2002 18.8118C16.1959 18.8175 16.1917 18.8203 16.1874 18.8203C16.0881 18.8203 15.9887 18.8203 15.8893 18.8203C15.868 18.8104 15.868 18.8004 15.8908 18.7933Z" fill="#EDE3C7"/>
<path d="M16.1875 18.8203C16.1875 18.8118 16.1875 18.8019 16.1889 18.7933C16.2883 18.7933 16.3877 18.7933 16.4856 18.7933C16.4984 18.8004 16.5027 18.8061 16.4984 18.8118C16.4941 18.8175 16.4899 18.8203 16.4856 18.8203C16.3862 18.8203 16.2869 18.8203 16.1875 18.8203Z" fill="#EDE3C7"/>
<path d="M11.0288 18.8205C11.0288 18.8148 11.0288 18.8105 11.0288 18.8049C11.0288 18.8006 11.0288 18.7963 11.0288 18.7921C11.1182 18.7978 11.2119 18.7509 11.2943 18.8205H11.0288Z" fill="#EDE3C7"/>
<path d="M11.5908 18.792C11.6788 18.792 11.7668 18.792 11.8548 18.792C11.8775 18.8005 11.8775 18.809 11.8562 18.819C11.7682 18.819 11.6802 18.819 11.5922 18.819C11.5794 18.8133 11.5751 18.8076 11.578 18.8005C11.5822 18.7963 11.5865 18.792 11.5908 18.792Z" fill="#EDE3C7"/>
<path d="M12.4185 18.8204C12.5008 18.7564 12.5931 18.7976 12.6811 18.7919C12.7038 18.8005 12.7038 18.8104 12.6825 18.8204C12.5945 18.8204 12.5065 18.8204 12.4185 18.8204Z" fill="#EDE3C7"/>
<path d="M12.6826 18.8204C12.6826 18.8104 12.6812 18.8019 12.6812 18.7919C12.7692 18.7919 12.8572 18.7905 12.9452 18.7905C12.9679 18.8005 12.9679 18.8104 12.9466 18.8218C12.8586 18.8204 12.7706 18.8204 12.6826 18.8204Z" fill="#EDE3C7"/>
<path d="M12.9467 18.8204C12.9467 18.8105 12.9467 18.8005 12.9453 18.7891C13.0333 18.7891 13.1228 18.7877 13.2108 18.7877C13.2108 18.7991 13.2108 18.809 13.2108 18.8204C13.1228 18.8204 13.0347 18.8204 12.9467 18.8204Z" fill="#EDE3C7"/>
<path d="M14.7664 18.7906C14.7664 18.8005 14.765 18.8105 14.765 18.8204C14.677 18.8204 14.589 18.8204 14.501 18.8204C14.501 18.809 14.501 18.7991 14.501 18.7877C14.5904 18.7891 14.6784 18.7891 14.7664 18.7906Z" fill="#EDE3C7"/>
<path d="M16.7167 18.792C16.7167 18.7963 16.7167 18.7991 16.7167 18.8034C16.7167 18.809 16.7167 18.8147 16.7167 18.8204H16.4854C16.4854 18.8147 16.4854 18.809 16.4854 18.8034C16.4854 18.7991 16.4854 18.7963 16.4854 18.792H16.7167Z" fill="#EDE3C7"/>
<path d="M11.5909 18.792C11.5909 18.802 11.5923 18.8105 11.5923 18.8204C11.5256 18.8204 11.4603 18.8204 11.3936 18.8204C11.4503 18.7551 11.5241 18.7977 11.5909 18.792Z" fill="#EDE3C7"/>
<path d="M12.1206 18.8203C12.1873 18.7678 12.2526 18.7706 12.3193 18.8203C12.2526 18.8203 12.1859 18.8203 12.1206 18.8203Z" fill="#EDE3C7"/>
<path d="M15.063 18.8204C15.063 18.8104 15.063 18.8005 15.0644 18.7905C15.1311 18.7905 15.1964 18.7905 15.2631 18.7905C15.2759 18.7976 15.2801 18.8033 15.2759 18.8104C15.2716 18.8161 15.2674 18.8189 15.2631 18.8189C15.195 18.8204 15.1297 18.8204 15.063 18.8204Z" fill="#EDE3C7"/>
<path d="M11.8564 18.8204C11.8564 18.8119 11.8564 18.802 11.855 18.7934C11.9118 18.7963 11.9742 18.7608 12.0211 18.8204C11.9657 18.8204 11.9103 18.8204 11.8564 18.8204Z" fill="#EDE3C7"/>
<path d="M15.2617 18.8204C15.2617 18.8105 15.2617 18.8005 15.2631 18.792C15.3185 18.792 15.3739 18.792 15.4292 18.7934C15.4278 18.8034 15.4278 18.8119 15.4278 18.8218C15.371 18.8204 15.3171 18.8204 15.2617 18.8204Z" fill="#EDE3C7"/>
<path d="M15.8907 18.7934C15.8907 18.8019 15.8893 18.8119 15.8893 18.8204C15.8339 18.8204 15.7785 18.8204 15.7246 18.8204C15.7246 18.8105 15.7246 18.8005 15.726 18.792C15.78 18.792 15.8353 18.792 15.8907 18.7934Z" fill="#EDE3C7"/>
</svg>
